Altinn-DIN.ufo
<glyph name="dollar" format="2">
  <advance width="467"/>
  <unicode hex="0024"/>
  <outline>
    <contour>
      <point x="377" y="85" type="curve" smooth="yes"/>
      <point x="348" y="54"/>
      <point x="308" y="35"/>
      <point x="257" y="30" type="curve"/>
      <point x="257" y="-60" type="line"/>
      <point x="198" y="-60" type="line"/>
      <point x="198" y="29" type="line"/>
      <point x="149" y="34"/>
      <point x="110" y="53"/>
      <point x="82" y="84" type="curve" smooth="yes"/>
      <point x="54" y="115"/>
      <point x="38" y="159"/>
      <point x="34" y="214" type="curve"/>
      <point x="104" y="214" type="line"/>
      <point x="107" y="178"/>
      <point x="117" y="150"/>
      <point x="133" y="131" type="curve" smooth="yes"/>
      <point x="149" y="112"/>
      <point x="171" y="99"/>
      <point x="198" y="94" type="curve"/>
      <point x="198" y="330" type="line"/>
      <point x="190" y="331" type="line" smooth="yes"/>
      <point x="142" y="341"/>
      <point x="107" y="359"/>
      <point x="82" y="385" type="curve" smooth="yes"/>
      <point x="57" y="411"/>
      <point x="45" y="449"/>
      <point x="45" y="498" type="curve" smooth="yes"/>
      <point x="45" y="549"/>
      <point x="59" y="589"/>
      <point x="87" y="620" type="curve" smooth="yes"/>
      <point x="115" y="651"/>
      <point x="152" y="670"/>
      <point x="198" y="675" type="curve"/>
      <point x="198" y="759" type="line"/>
      <point x="257" y="759" type="line"/>
      <point x="257" y="676" type="line"/>
      <point x="301" y="671"/>
      <point x="337" y="653"/>
      <point x="364" y="624" type="curve" smooth="yes"/>
      <point x="391" y="595"/>
      <point x="407" y="554"/>
      <point x="412" y="499" type="curve"/>
      <point x="341" y="499" type="line"/>
      <point x="336" y="564"/>
      <point x="308" y="601"/>
      <point x="257" y="611" type="curve"/>
      <point x="257" y="387" type="line"/>
      <point x="274" y="384" type="line" smooth="yes"/>
      <point x="322" y="375"/>
      <point x="358" y="357"/>
      <point x="383" y="329" type="curve" smooth="yes"/>
      <point x="408" y="301"/>
      <point x="421" y="262"/>
      <point x="421" y="211" type="curve" smooth="yes"/>
      <point x="421" y="158"/>
      <point x="406" y="116"/>
    </contour>
    <contour>
      <point x="137" y="435" type="curve" smooth="yes"/>
      <point x="150" y="418"/>
      <point x="171" y="406"/>
      <point x="198" y="399" type="curve"/>
      <point x="198" y="610" type="line"/>
      <point x="171" y="605"/>
      <point x="151" y="594"/>
      <point x="137" y="575" type="curve" smooth="yes"/>
      <point x="123" y="556"/>
      <point x="117" y="532"/>
      <point x="117" y="503" type="curve" smooth="yes"/>
      <point x="117" y="474"/>
      <point x="124" y="452"/>
    </contour>
    <contour>
      <point x="326" y="128" type="curve" smooth="yes"/>
      <point x="341" y="147"/>
      <point x="349" y="173"/>
      <point x="349" y="206" type="curve" smooth="yes"/>
      <point x="349" y="239"/>
      <point x="342" y="264"/>
      <point x="327" y="281" type="curve" smooth="yes"/>
      <point x="312" y="298"/>
      <point x="289" y="309"/>
      <point x="257" y="317" type="curve"/>
      <point x="257" y="93" type="line"/>
      <point x="288" y="97"/>
      <point x="311" y="109"/>
    </contour>
    <contour>
      <point x="126" y="705" type="move" smooth="yes"/>
    </contour>
  </outline>
</glyph>
<glyph name="eight" format="2">
  <advance width="524"/>
  <unicode hex="0038"/>
  <outline>
    <contour>
      <point x="161" y="14" type="curve" smooth="yes"/>
      <point x="132" y="30"/>
      <point x="108" y="53"/>
      <point x="92" y="82" type="curve" smooth="yes"/>
      <point x="76" y="111"/>
      <point x="68" y="145"/>
      <point x="68" y="183" type="curve" smooth="yes"/>
      <point x="68" y="209" type="line" smooth="yes"/>
      <point x="68" y="246"/>
      <point x="77" y="279"/>
      <point x="94" y="308" type="curve" smooth="yes"/>
      <point x="111" y="337"/>
      <point x="135" y="359"/>
      <point x="166" y="373" type="curve"/>
      <point x="140" y="386"/>
      <point x="119" y="405"/>
      <point x="104" y="430" type="curve" smooth="yes"/>
      <point x="89" y="455"/>
      <point x="82" y="484"/>
      <point x="82" y="518" type="curve" smooth="yes"/>
      <point x="82" y="539" type="line" smooth="yes"/>
      <point x="82" y="572"/>
      <point x="89" y="602"/>
      <point x="104" y="629" type="curve" smooth="yes"/>
      <point x="119" y="656"/>
      <point x="141" y="677"/>
      <point x="168" y="693" type="curve" smooth="yes"/>
      <point x="195" y="709"/>
      <point x="227" y="717"/>
      <point x="262" y="717" type="curve" smooth="yes"/>
      <point x="298" y="717"/>
      <point x="330" y="709"/>
      <point x="358" y="693" type="curve" smooth="yes"/>
      <point x="386" y="677"/>
      <point x="406" y="656"/>
      <point x="421" y="629" type="curve" smooth="yes"/>
      <point x="436" y="602"/>
      <point x="443" y="572"/>
      <point x="443" y="539" type="curve" smooth="yes"/>
      <point x="443" y="518" type="line" smooth="yes"/>
      <point x="443" y="484"/>
      <point x="435" y="455"/>
      <point x="420" y="430" type="curve" smooth="yes"/>
      <point x="405" y="405"/>
      <point x="384" y="386"/>
      <point x="358" y="373" type="curve"/>
      <point x="389" y="358"/>
      <point x="414" y="336"/>
      <point x="431" y="307" type="curve" smooth="yes"/>
      <point x="448" y="278"/>
      <point x="457" y="245"/>
      <point x="457" y="210" type="curve" smooth="yes"/>
      <point x="457" y="184" type="line" smooth="yes"/>
      <point x="457" y="145"/>
      <point x="449" y="111"/>
      <point x="432" y="82" type="curve" smooth="yes"/>
      <point x="415" y="53"/>
      <point x="391" y="30"/>
      <point x="362" y="14" type="curve" smooth="yes"/>
      <point x="333" y="-2"/>
      <point x="299" y="-10"/>
      <point x="261" y="-10" type="curve" smooth="yes"/>
      <point x="223" y="-10"/>
      <point x="190" y="-2"/>
    </contour>
    <contour>
      <point x="339" y="436" type="curve" smooth="yes"/>
      <point x="358" y="457"/>
      <point x="369" y="485"/>
      <point x="369" y="518" type="curve" smooth="yes"/>
      <point x="369" y="540" type="line" smooth="yes"/>
      <point x="369" y="572"/>
      <point x="359" y="598"/>
      <point x="339" y="619" type="curve" smooth="yes"/>
      <point x="319" y="640"/>
      <point x="293" y="650"/>
      <point x="262" y="650" type="curve" smooth="yes"/>
      <point x="231" y="650"/>
      <point x="205" y="640"/>
      <point x="186" y="619" type="curve" smooth="yes"/>
      <point x="167" y="598"/>
      <point x="157" y="572"/>
      <point x="157" y="540" type="curve" smooth="yes"/>
      <point x="157" y="518" type="line" smooth="yes"/>
      <point x="157" y="485"/>
      <point x="166" y="457"/>
      <point x="185" y="436" type="curve" smooth="yes"/>
      <point x="204" y="415"/>
      <point x="230" y="404"/>
      <point x="262" y="404" type="curve" smooth="yes"/>
      <point x="294" y="404"/>
      <point x="320" y="415"/>
    </contour>
    <contour>
      <point x="349" y="92" type="curve" smooth="yes"/>
      <point x="371" y="116"/>
      <point x="382" y="146"/>
      <point x="382" y="184" type="curve" smooth="yes"/>
      <point x="382" y="210" type="line" smooth="yes"/>
      <point x="382" y="248"/>
      <point x="372" y="279"/>
      <point x="350" y="303" type="curve" smooth="yes"/>
      <point x="328" y="327"/>
      <point x="299" y="338"/>
      <point x="262" y="338" type="curve" smooth="yes"/>
      <point x="226" y="338"/>
      <point x="197" y="326"/>
      <point x="175" y="302" type="curve" smooth="yes"/>
      <point x="153" y="278"/>
      <point x="142" y="248"/>
      <point x="142" y="210" type="curve" smooth="yes"/>
      <point x="142" y="184" type="line" smooth="yes"/>
      <point x="142" y="146"/>
      <point x="153" y="116"/>
      <point x="175" y="92" type="curve" smooth="yes"/>
      <point x="197" y="68"/>
      <point x="226" y="56"/>
      <point x="262" y="56" type="curve" smooth="yes"/>
      <point x="298" y="56"/>
      <point x="327" y="68"/>
    </contour>
  </outline>
</glyph>
<glyph name="semicolon" format="2">
  <advance width="198"/>
  <unicode hex="003B"/>
  <outline>
    <contour>
      <point x="54" y="440" type="line"/>
      <point x="144" y="440" type="line"/>
      <point x="144" y="346" type="line"/>
      <point x="54" y="346" type="line"/>
    </contour>
    <contour>
      <point x="77" y="95" type="line"/>
      <point x="144" y="95" type="line"/>
      <point x="144" y="-77" type="line"/>
      <point x="77" y="-140" type="line"/>
    </contour>
  </outline>
</glyph>
<glyph name="question" format="2">
  <advance width="439"/>
  <unicode hex="003F"/>
  <outline>
    <contour>
      <point x="176" y="243" type="line" smooth="yes"/>
      <point x="176" y="268"/>
      <point x="178" y="288"/>
      <point x="183" y="303" type="curve" smooth="yes"/>
      <point x="188" y="318"/>
      <point x="198" y="336"/>
      <point x="214" y="357" type="curve" smooth="yes"/>
      <point x="269" y="432" type="line" smooth="yes"/>
      <point x="287" y="457"/>
      <point x="301" y="477"/>
      <point x="307" y="493" type="curve" smooth="yes"/>
      <point x="313" y="509"/>
      <point x="316" y="527"/>
      <point x="316" y="546" type="curve" smooth="yes"/>
      <point x="316" y="579"/>
      <point x="308" y="604"/>
      <point x="290" y="622" type="curve" smooth="yes"/>
      <point x="272" y="640"/>
      <point x="247" y="649"/>
      <point x="214" y="649" type="curve" smooth="yes"/>
      <point x="148" y="649"/>
      <point x="114" y="612"/>
      <point x="113" y="538" type="curve"/>
      <point x="39" y="538" type="line"/>
      <point x="40" y="595"/>
      <point x="56" y="639"/>
      <point x="86" y="670" type="curve" smooth="yes"/>
      <point x="116" y="701"/>
      <point x="159" y="717"/>
      <point x="216" y="717" type="curve" smooth="yes"/>
      <point x="270" y="717"/>
      <point x="313" y="701"/>
      <point x="344" y="670" type="curve" smooth="yes"/>
      <point x="375" y="639"/>
      <point x="391" y="597"/>
      <point x="391" y="546" type="curve" smooth="yes"/>
      <point x="391" y="521"/>
      <point x="387" y="498"/>
      <point x="379" y="478" type="curve" smooth="yes"/>
      <point x="371" y="458"/>
      <point x="357" y="435"/>
      <point x="339" y="409" type="curve" smooth="yes"/>
      <point x="281" y="327" type="line" smooth="yes"/>
      <point x="269" y="311"/>
      <point x="261" y="297"/>
      <point x="257" y="285" type="curve" smooth="yes"/>
      <point x="253" y="273"/>
      <point x="251" y="259"/>
      <point x="251" y="242" type="curve" smooth="yes"/>
      <point x="251" y="182" type="line"/>
      <point x="176" y="182" type="line"/>
    </contour>
    <contour>
      <point x="168" y="95" type="line"/>
      <point x="259" y="95" type="line"/>
      <point x="259" y="-0" type="line"/>
      <point x="168" y="-0" type="line"/>
    </contour>
  </outline>
</glyph>
<glyph name="F" format="2">
  <advance width="551"/>
  <unicode hex="0046"/>
  <outline>
    <contour>
      <point x="157" y="639" type="line"/>
      <point x="157" y="391" type="line"/>
      <point x="460" y="391" type="line"/>
      <point x="460" y="324" type="line"/>
      <point x="157" y="324" type="line"/>
      <point x="157" y="0" type="line"/>
      <point x="82" y="0" type="line"/>
      <point x="82" y="707" type="line"/>
      <point x="511" y="707" type="line"/>
      <point x="511" y="639" type="line"/>
    </contour>
  </outline>
</glyph>
<glyph name="J" format="2">
  <advance width="320"/>
  <unicode hex="004A"/>
  <outline>
    <contour>
      <point x="33" y="68" type="line"/>
      <point x="91" y="68" type="line" smooth="yes"/>
      <point x="114" y="68"/>
      <point x="131" y="74"/>
      <point x="141" y="86" type="curve" smooth="yes"/>
      <point x="151" y="98"/>
      <point x="156" y="118"/>
      <point x="156" y="145" type="curve" smooth="yes"/>
      <point x="156" y="707" type="line"/>
      <point x="230" y="707" type="line"/>
      <point x="230" y="136" type="line" smooth="yes"/>
      <point x="230" y="92"/>
      <point x="220" y="58"/>
      <point x="198" y="35" type="curve" smooth="yes"/>
      <point x="176" y="12"/>
      <point x="144" y="0"/>
      <point x="102" y="0" type="curve" smooth="yes"/>
      <point x="33" y="0" type="line"/>
    </contour>
  </outline>
</glyph>
<glyph name="P" format="2">
  <advance width="590"/>
  <unicode hex="0050"/>
  <outline>
    <contour>
      <point x="499" y="652" type="curve" smooth="yes"/>
      <point x="539" y="615"/>
      <point x="558" y="564"/>
      <point x="558" y="496" type="curve" smooth="yes"/>
      <point x="558" y="433"/>
      <point x="538" y="382"/>
      <point x="498" y="346" type="curve" smooth="yes"/>
      <point x="458" y="310"/>
      <point x="404" y="292"/>
      <point x="336" y="292" type="curve" smooth="yes"/>
      <point x="157" y="292" type="line"/>
      <point x="157" y="0" type="line"/>
      <point x="82" y="0" type="line"/>
      <point x="82" y="707" type="line"/>
      <point x="336" y="707" type="line" smooth="yes"/>
      <point x="405" y="707"/>
      <point x="459" y="689"/>
    </contour>
    <contour>
      <point x="443" y="393" type="curve" smooth="yes"/>
      <point x="470" y="416"/>
      <point x="483" y="450"/>
      <point x="483" y="496" type="curve" smooth="yes"/>
      <point x="483" y="544"/>
      <point x="470" y="580"/>
      <point x="443" y="604" type="curve" smooth="yes"/>
      <point x="416" y="628"/>
      <point x="379" y="639"/>
      <point x="330" y="639" type="curve" smooth="yes"/>
      <point x="157" y="639" type="line"/>
      <point x="157" y="359" type="line"/>
      <point x="330" y="359" type="line" smooth="yes"/>
      <point x="379" y="359"/>
      <point x="416" y="370"/>
    </contour>
  </outline>
</glyph>
<glyph name="Q" format="2">
  <advance width="624"/>
  <unicode hex="0051"/>
  <outline>
    <contour>
      <point x="442" y="20" type="curve"/>
      <point x="519" y="-122" type="line"/>
      <point x="461" y="-155" type="line"/>
      <point x="378" y="-2" type="line"/>
      <point x="358" y="-6"/>
      <point x="335" y="-8"/>
      <point x="312" y="-8" type="curve" smooth="yes"/>
      <point x="237" y="-8"/>
      <point x="178" y="14"/>
      <point x="134" y="57" type="curve" smooth="yes"/>
      <point x="90" y="100"/>
      <point x="68" y="168"/>
      <point x="68" y="262" type="curve" smooth="yes"/>
      <point x="68" y="445" type="line" smooth="yes"/>
      <point x="68" y="539"/>
      <point x="90" y="608"/>
      <point x="134" y="651" type="curve" smooth="yes"/>
      <point x="178" y="694"/>
      <point x="238" y="716"/>
      <point x="313" y="716" type="curve" smooth="yes"/>
      <point x="387" y="716"/>
      <point x="447" y="694"/>
      <point x="491" y="651" type="curve" smooth="yes"/>
      <point x="535" y="608"/>
      <point x="557" y="539"/>
      <point x="557" y="445" type="curve" smooth="yes"/>
      <point x="557" y="262" type="line" smooth="yes"/>
      <point x="557" y="141"/>
      <point x="518" y="60"/>
    </contour>
    <contour>
      <point x="482" y="442" type="line" smooth="yes"/>
      <point x="482" y="579"/>
      <point x="426" y="648"/>
      <point x="313" y="648" type="curve" smooth="yes"/>
      <point x="256" y="648"/>
      <point x="214" y="632"/>
      <point x="185" y="600" type="curve" smooth="yes"/>
      <point x="156" y="568"/>
      <point x="142" y="514"/>
      <point x="142" y="442" type="curve" smooth="yes"/>
      <point x="142" y="258" type="line" smooth="yes"/>
      <point x="142" y="189"/>
      <point x="157" y="139"/>
      <point x="186" y="108" type="curve" smooth="yes"/>
      <point x="215" y="77"/>
      <point x="257" y="60"/>
      <point x="313" y="60" type="curve" smooth="yes"/>
      <point x="426" y="60"/>
      <point x="482" y="126"/>
      <point x="482" y="258" type="curve" smooth="yes"/>
    </contour>
  </outline>
</glyph>
<glyph name="U" format="2">
  <advance width="650"/>
  <unicode hex="0055"/>
  <outline>
    <contour>
      <point x="201" y="24" type="curve" smooth="yes"/>
      <point x="164" y="44"/>
      <point x="135" y="72"/>
      <point x="114" y="108" type="curve" smooth="yes"/>
      <point x="93" y="144"/>
      <point x="82" y="184"/>
      <point x="82" y="230" type="curve" smooth="yes"/>
      <point x="82" y="707" type="line"/>
      <point x="158" y="707" type="line"/>
      <point x="158" y="237" type="line" smooth="yes"/>
      <point x="158" y="183"/>
      <point x="173" y="140"/>
      <point x="203" y="108" type="curve" smooth="yes"/>
      <point x="233" y="76"/>
      <point x="275" y="60"/>
      <point x="326" y="60" type="curve" smooth="yes"/>
      <point x="377" y="60"/>
      <point x="416" y="76"/>
      <point x="447" y="108" type="curve" smooth="yes"/>
      <point x="478" y="140"/>
      <point x="494" y="183"/>
      <point x="494" y="237" type="curve" smooth="yes"/>
      <point x="494" y="707" type="line"/>
      <point x="568" y="707" type="line"/>
      <point x="568" y="230" type="line" smooth="yes"/>
      <point x="568" y="184"/>
      <point x="558" y="143"/>
      <point x="537" y="107" type="curve" smooth="yes"/>
      <point x="516" y="71"/>
      <point x="488" y="44"/>
      <point x="451" y="24" type="curve" smooth="yes"/>
      <point x="414" y="4"/>
      <point x="372" y="-6"/>
      <point x="326" y="-6" type="curve" smooth="yes"/>
      <point x="280" y="-6"/>
      <point x="238" y="4"/>
    </contour>
  </outline>
</glyph>
<glyph name="d" format="2">
  <advance width="523"/>
  <unicode hex="0064"/>
  <outline>
    <contour>
      <point x="110" y="46" type="curve" smooth="yes"/>
      <point x="77" y="80"/>
      <point x="60" y="134"/>
      <point x="60" y="207" type="curve" smooth="yes"/>
      <point x="60" y="313" type="line" smooth="yes"/>
      <point x="60" y="386"/>
      <point x="77" y="441"/>
      <point x="110" y="475" type="curve" smooth="yes"/>
      <point x="143" y="509"/>
      <point x="185" y="526"/>
      <point x="237" y="526" type="curve" smooth="yes"/>
      <point x="300" y="526"/>
      <point x="346" y="499"/>
      <point x="376" y="446" type="curve"/>
      <point x="376" y="707" type="line"/>
      <point x="446" y="707" type="line"/>
      <point x="446" y="0" type="line"/>
      <point x="376" y="0" type="line"/>
      <point x="376" y="69" type="line"/>
      <point x="362" y="44"/>
      <point x="344" y="26"/>
      <point x="320" y="13" type="curve" smooth="yes"/>
      <point x="296" y="0"/>
      <point x="269" y="-6"/>
      <point x="236" y="-6" type="curve" smooth="yes"/>
      <point x="185" y="-6"/>
      <point x="143" y="12"/>
    </contour>
    <contour>
      <point x="343" y="99" type="curve" smooth="yes"/>
      <point x="365" y="128"/>
      <point x="376" y="166"/>
      <point x="376" y="212" type="curve" smooth="yes"/>
      <point x="376" y="303" type="line" smooth="yes"/>
      <point x="376" y="351"/>
      <point x="365" y="390"/>
      <point x="344" y="419" type="curve" smooth="yes"/>
      <point x="323" y="448"/>
      <point x="292" y="463"/>
      <point x="250" y="463" type="curve" smooth="yes"/>
      <point x="171" y="463"/>
      <point x="131" y="411"/>
      <point x="131" y="309" type="curve" smooth="yes"/>
      <point x="131" y="211" type="line" smooth="yes"/>
      <point x="131" y="108"/>
      <point x="170" y="56"/>
      <point x="246" y="56" type="curve" smooth="yes"/>
      <point x="289" y="56"/>
      <point x="321" y="70"/>
    </contour>
  </outline>
</glyph>
<glyph name="i" format="2">
  <advance width="239"/>
  <unicode hex="0069"/>
  <outline>
    <contour>
      <point x="85" y="519" type="line"/>
      <point x="155" y="519" type="line"/>
      <point x="155" y="0" type="line"/>
      <point x="85" y="0" type="line"/>
    </contour>
    <contour>
      <point x="83" y="696" type="line"/>
      <point x="157" y="696" type="line"/>
      <point x="157" y="604" type="line"/>
      <point x="83" y="604" type="line"/>
    </contour>
  </outline>
</glyph>
<glyph name="m" format="2">
  <advance width="844"/>
  <unicode hex="006D"/>
  <outline>
    <contour>
      <point x="77" y="519" type="line"/>
      <point x="145" y="519" type="line"/>
      <point x="145" y="456" type="line"/>
      <point x="160" y="479"/>
      <point x="180" y="495"/>
      <point x="204" y="507" type="curve" smooth="yes"/>
      <point x="228" y="519"/>
      <point x="256" y="525"/>
      <point x="286" y="525" type="curve" smooth="yes"/>
      <point x="321" y="525"/>
      <point x="352" y="518"/>
      <point x="377" y="503" type="curve" smooth="yes"/>
      <point x="402" y="488"/>
      <point x="421" y="466"/>
      <point x="435" y="438" type="curve"/>
      <point x="469" y="496"/>
      <point x="522" y="525"/>
      <point x="593" y="525" type="curve" smooth="yes"/>
      <point x="648" y="525"/>
      <point x="691" y="509"/>
      <point x="722" y="477" type="curve" smooth="yes"/>
      <point x="753" y="445"/>
      <point x="768" y="399"/>
      <point x="768" y="341" type="curve" smooth="yes"/>
      <point x="768" y="-0" type="line"/>
      <point x="698" y="-0" type="line"/>
      <point x="698" y="331" type="line" smooth="yes"/>
      <point x="698" y="374"/>
      <point x="688" y="406"/>
      <point x="667" y="429" type="curve" smooth="yes"/>
      <point x="646" y="452"/>
      <point x="618" y="463"/>
      <point x="580" y="463" type="curve" smooth="yes"/>
      <point x="542" y="463"/>
      <point x="512" y="452"/>
      <point x="490" y="429" type="curve" smooth="yes"/>
      <point x="468" y="406"/>
      <point x="458" y="374"/>
      <point x="458" y="334" type="curve" smooth="yes"/>
      <point x="458" y="-0" type="line"/>
      <point x="387" y="-0" type="line"/>
      <point x="387" y="331" type="line" smooth="yes"/>
      <point x="387" y="374"/>
      <point x="377" y="406"/>
      <point x="356" y="429" type="curve" smooth="yes"/>
      <point x="335" y="452"/>
      <point x="306" y="463"/>
      <point x="268" y="463" type="curve" smooth="yes"/>
      <point x="231" y="463"/>
      <point x="202" y="452"/>
      <point x="180" y="429" type="curve" smooth="yes"/>
      <point x="158" y="406"/>
      <point x="146" y="373"/>
      <point x="146" y="331" type="curve" smooth="yes"/>
      <point x="146" y="0" type="line"/>
      <point x="77" y="0" type="line"/>
    </contour>
  </outline>
</glyph>
<glyph name="p" format="2">
  <advance width="522"/>
  <unicode hex="0070"/>
  <outline>
    <contour>
      <point x="77" y="519" type="line"/>
      <point x="146" y="519" type="line"/>
      <point x="146" y="446" type="line"/>
      <point x="160" y="472"/>
      <point x="179" y="492"/>
      <point x="202" y="505" type="curve" smooth="yes"/>
      <point x="225" y="518"/>
      <point x="252" y="525"/>
      <point x="282" y="525" type="curve" smooth="yes"/>
      <point x="335" y="525"/>
      <point x="379" y="508"/>
      <point x="412" y="474" type="curve" smooth="yes"/>
      <point x="445" y="440"/>
      <point x="462" y="386"/>
      <point x="462" y="313" type="curve" smooth="yes"/>
      <point x="462" y="207" type="line" smooth="yes"/>
      <point x="462" y="133"/>
      <point x="446" y="79"/>
      <point x="413" y="45" type="curve" smooth="yes"/>
      <point x="380" y="11"/>
      <point x="338" y="-6"/>
      <point x="287" y="-6" type="curve" smooth="yes"/>
      <point x="222" y="-6"/>
      <point x="175" y="19"/>
      <point x="146" y="69" type="curve"/>
      <point x="146" y="-156" type="line"/>
      <point x="77" y="-156" type="line"/>
    </contour>
    <contour>
      <point x="392" y="211" type="curve" smooth="yes"/>
      <point x="392" y="308" type="line" smooth="yes"/>
      <point x="392" y="411"/>
      <point x="352" y="463"/>
      <point x="272" y="463" type="curve" smooth="yes"/>
      <point x="230" y="463"/>
      <point x="199" y="448"/>
      <point x="178" y="419" type="curve" smooth="yes"/>
      <point x="157" y="390"/>
      <point x="146" y="351"/>
      <point x="146" y="303" type="curve" smooth="yes"/>
      <point x="146" y="212" type="line" smooth="yes"/>
      <point x="146" y="166"/>
      <point x="158" y="129"/>
      <point x="180" y="100" type="curve" smooth="yes"/>
      <point x="202" y="71"/>
      <point x="234" y="56"/>
      <point x="276" y="56" type="curve" smooth="yes"/>
      <point x="353" y="56"/>
      <point x="392" y="108"/>
    </contour>
  </outline>
</glyph>
<glyph name="y" format="2">
  <advance width="449"/>
  <unicode hex="0079"/>
  <outline>
    <contour>
      <point x="435" y="519" type="line"/>
      <point x="236" y="-56" type="line" smooth="yes"/>
      <point x="224" y="-91"/>
      <point x="207" y="-116"/>
      <point x="185" y="-132" type="curve" smooth="yes"/>
      <point x="163" y="-148"/>
      <point x="134" y="-156"/>
      <point x="99" y="-156" type="curve" smooth="yes"/>
      <point x="69" y="-156" type="line"/>
      <point x="69" y="-92" type="line"/>
      <point x="94" y="-92" type="line" smooth="yes"/>
      <point x="119" y="-92"/>
      <point x="138" y="-87"/>
      <point x="151" y="-77" type="curve" smooth="yes"/>
      <point x="164" y="-67"/>
      <point x="174" y="-50"/>
      <point x="182" y="-27" type="curve" smooth="yes"/>
      <point x="193" y="5" type="line"/>
      <point x="14" y="519" type="line"/>
      <point x="90" y="519" type="line"/>
      <point x="226" y="106" type="line"/>
      <point x="362" y="519" type="line"/>
    </contour>
  </outline>
</glyph>
<glyph name="cent" format="2">
  <advance width="515"/>
  <unicode hex="00A2"/>
  <outline>
    <contour>
      <point x="387" y="348" type="line"/>
      <point x="387" y="353" type="line" smooth="yes"/>
      <point x="387" y="385"/>
      <point x="377" y="411"/>
      <point x="359" y="430" type="curve" smooth="yes"/>
      <point x="341" y="449"/>
      <point x="315" y="459"/>
      <point x="282" y="462" type="curve"/>
      <point x="282" y="57" type="line"/>
      <point x="315" y="60"/>
      <point x="340" y="71"/>
      <point x="359" y="90" type="curve" smooth="yes"/>
      <point x="378" y="109"/>
      <point x="387" y="134"/>
      <point x="387" y="166" type="curve" smooth="yes"/>
      <point x="387" y="171" type="line"/>
      <point x="455" y="171" type="line"/>
      <point x="455" y="167" type="line" smooth="yes"/>
      <point x="455" y="117"/>
      <point x="439" y="77"/>
      <point x="408" y="46" type="curve" smooth="yes"/>
      <point x="377" y="15"/>
      <point x="335" y="-2"/>
      <point x="282" y="-5" type="curve"/>
      <point x="282" y="-102" type="line"/>
      <point x="222" y="-102" type="line"/>
      <point x="222" y="-3" type="line"/>
      <point x="172" y="4"/>
      <point x="133" y="24"/>
      <point x="104" y="58" type="curve" smooth="yes"/>
      <point x="75" y="92"/>
      <point x="60" y="141"/>
      <point x="60" y="207" type="curve" smooth="yes"/>
      <point x="60" y="313" type="line" smooth="yes"/>
      <point x="60" y="379"/>
      <point x="74" y="429"/>
      <point x="103" y="463" type="curve" smooth="yes"/>
      <point x="132" y="497"/>
      <point x="171" y="517"/>
      <point x="222" y="524" type="curve"/>
      <point x="222" y="622" type="line"/>
      <point x="282" y="622" type="line"/>
      <point x="282" y="525" type="line"/>
      <point x="335" y="522"/>
      <point x="377" y="506"/>
      <point x="408" y="475" type="curve" smooth="yes"/>
      <point x="439" y="444"/>
      <point x="455" y="403"/>
      <point x="455" y="353" type="curve" smooth="yes"/>
      <point x="455" y="348" type="line"/>
    </contour>
    <contour>
      <point x="154" y="105" type="curve" smooth="yes"/>
      <point x="170" y="81"/>
      <point x="193" y="66"/>
      <point x="222" y="60" type="curve"/>
      <point x="222" y="459" type="line"/>
      <point x="193" y="452"/>
      <point x="170" y="437"/>
      <point x="154" y="414" type="curve" smooth="yes"/>
      <point x="138" y="391"/>
      <point x="130" y="355"/>
      <point x="130" y="309" type="curve" smooth="yes"/>
      <point x="130" y="211" type="line" smooth="yes"/>
      <point x="130" y="164"/>
      <point x="138" y="129"/>
    </contour>
  </outline>
</glyph>
<glyph name="currency" format="2">
  <advance width="627"/>
  <unicode hex="00A4"/>
  <outline>
    <contour>
      <point x="430" y="170" type="line"/>
      <point x="396" y="145"/>
      <point x="357" y="133"/>
      <point x="313" y="133" type="curve" smooth="yes"/>
      <point x="269" y="133"/>
      <point x="230" y="145"/>
      <point x="196" y="170" type="curve"/>
      <point x="124" y="98" type="line"/>
      <point x="77" y="147" type="line"/>
      <point x="147" y="218" type="line"/>
      <point x="123" y="253"/>
      <point x="112" y="292"/>
      <point x="112" y="335" type="curve" smooth="yes"/>
      <point x="112" y="379"/>
      <point x="123" y="419"/>
      <point x="148" y="452" type="curve"/>
      <point x="77" y="524" type="line"/>
      <point x="124" y="572" type="line"/>
      <point x="197" y="501" type="line"/>
      <point x="230" y="525"/>
      <point x="269" y="537"/>
      <point x="313" y="537" type="curve" smooth="yes"/>
      <point x="357" y="537"/>
      <point x="396" y="525"/>
      <point x="429" y="501" type="curve"/>
      <point x="502" y="572" type="line"/>
      <point x="550" y="524" type="line"/>
      <point x="478" y="453" type="line"/>
      <point x="503" y="418"/>
      <point x="515" y="378"/>
      <point x="515" y="335" type="curve" smooth="yes"/>
      <point x="515" y="291"/>
      <point x="503" y="252"/>
      <point x="478" y="218" type="curve"/>
      <point x="551" y="146" type="line"/>
      <point x="503" y="97" type="line"/>
    </contour>
    <contour>
      <point x="411" y="236" type="curve" smooth="yes"/>
      <point x="437" y="263"/>
      <point x="450" y="295"/>
      <point x="450" y="335" type="curve" smooth="yes"/>
      <point x="450" y="375"/>
      <point x="437" y="407"/>
      <point x="411" y="434" type="curve" smooth="yes"/>
      <point x="385" y="461"/>
      <point x="352" y="474"/>
      <point x="313" y="474" type="curve" smooth="yes"/>
      <point x="274" y="474"/>
      <point x="242" y="461"/>
      <point x="216" y="434" type="curve" smooth="yes"/>
      <point x="190" y="407"/>
      <point x="177" y="375"/>
      <point x="177" y="335" type="curve" smooth="yes"/>
      <point x="177" y="295"/>
      <point x="190" y="263"/>
      <point x="216" y="236" type="curve" smooth="yes"/>
      <point x="242" y="209"/>
      <point x="274" y="196"/>
      <point x="313" y="196" type="curve" smooth="yes"/>
      <point x="352" y="196"/>
      <point x="385" y="209"/>
    </contour>
  </outline>
</glyph>
<glyph name="registered" format="2">
  <advance width="549"/>
  <unicode hex="00AE"/>
  <outline>
    <contour>
      <point x="176" y="339" type="curve" smooth="yes"/>
      <point x="147" y="356"/>
      <point x="124" y="380"/>
      <point x="107" y="410" type="curve" smooth="yes"/>
      <point x="90" y="440"/>
      <point x="82" y="473"/>
      <point x="82" y="510" type="curve" smooth="yes"/>
      <point x="82" y="547"/>
      <point x="90" y="580"/>
      <point x="107" y="610" type="curve" smooth="yes"/>
      <point x="124" y="640"/>
      <point x="147" y="663"/>
      <point x="176" y="680" type="curve" smooth="yes"/>
      <point x="205" y="697"/>
      <point x="238" y="706"/>
      <point x="274" y="706" type="curve" smooth="yes"/>
      <point x="311" y="706"/>
      <point x="345" y="697"/>
      <point x="374" y="680" type="curve" smooth="yes"/>
      <point x="403" y="663"/>
      <point x="426" y="640"/>
      <point x="443" y="610" type="curve" smooth="yes"/>
      <point x="460" y="580"/>
      <point x="468" y="547"/>
      <point x="468" y="510" type="curve" smooth="yes"/>
      <point x="468" y="472"/>
      <point x="460" y="439"/>
      <point x="443" y="409" type="curve" smooth="yes"/>
      <point x="426" y="379"/>
      <point x="403" y="356"/>
      <point x="374" y="339" type="curve" smooth="yes"/>
      <point x="345" y="322"/>
      <point x="311" y="313"/>
      <point x="274" y="313" type="curve" smooth="yes"/>
      <point x="238" y="313"/>
      <point x="205" y="322"/>
    </contour>
    <contour>
      <point x="389" y="392" type="curve" smooth="yes"/>
      <point x="419" y="423"/>
      <point x="434" y="462"/>
      <point x="434" y="510" type="curve" smooth="yes"/>
      <point x="434" y="541"/>
      <point x="428" y="569"/>
      <point x="414" y="594" type="curve" smooth="yes"/>
      <point x="400" y="619"/>
      <point x="381" y="639"/>
      <point x="356" y="653" type="curve" smooth="yes"/>
      <point x="331" y="667"/>
      <point x="304" y="674"/>
      <point x="274" y="674" type="curve" smooth="yes"/>
      <point x="228" y="674"/>
      <point x="191" y="659"/>
      <point x="161" y="628" type="curve" smooth="yes"/>
      <point x="131" y="597"/>
      <point x="117" y="558"/>
      <point x="117" y="510" type="curve" smooth="yes"/>
      <point x="117" y="462"/>
      <point x="131" y="422"/>
      <point x="161" y="391" type="curve" smooth="yes"/>
      <point x="191" y="360"/>
      <point x="228" y="345"/>
      <point x="274" y="345" type="curve" smooth="yes"/>
      <point x="320" y="345"/>
      <point x="359" y="361"/>
    </contour>
    <contour>
      <point x="203" y="621" type="line"/>
      <point x="287" y="621" type="line" smooth="yes"/>
      <point x="310" y="621"/>
      <point x="326" y="615"/>
      <point x="339" y="604" type="curve" smooth="yes"/>
      <point x="352" y="593"/>
      <point x="358" y="576"/>
      <point x="358" y="556" type="curve" smooth="yes"/>
      <point x="358" y="541"/>
      <point x="355" y="528"/>
      <point x="348" y="518" type="curve" smooth="yes"/>
      <point x="341" y="508"/>
      <point x="331" y="501"/>
      <point x="318" y="496" type="curve"/>
      <point x="364" y="401" type="line"/>
      <point x="324" y="401" type="line"/>
      <point x="281" y="492" type="line"/>
      <point x="240" y="492" type="line"/>
      <point x="240" y="401" type="line"/>
      <point x="203" y="401" type="line"/>
    </contour>
    <contour>
      <point x="286" y="524" type="line" smooth="yes"/>
      <point x="311" y="524"/>
      <point x="323" y="535"/>
      <point x="323" y="556" type="curve" smooth="yes"/>
      <point x="323" y="577"/>
      <point x="311" y="588"/>
      <point x="286" y="588" type="curve" smooth="yes"/>
      <point x="240" y="588" type="line"/>
      <point x="240" y="524" type="line"/>
    </contour>
  </outline>
</glyph>
<glyph name="macron" format="2">
  <advance width="512"/>
  <unicode hex="00AF"/>
  <outline>
    <contour>
      <point x="123" y="668" type="line"/>
      <point x="389" y="668" type="line"/>
      <point x="389" y="604" type="line"/>
      <point x="123" y="604" type="line"/>
    </contour>
  </outline>
</glyph>
<glyph name="acute" format="2">
  <advance width="512"/>
  <unicode hex="00B4"/>
  <outline>
    <contour>
      <point x="274" y="714" type="line"/>
      <point x="360" y="714" type="line"/>
      <point x="238" y="586" type="line"/>
      <point x="173" y="586" type="line"/>
    </contour>
  </outline>
</glyph>
<glyph name="Ccedilla" format="2">
  <advance width="624"/>
  <unicode hex="00C7"/>
  <outline>
    <contour>
      <point x="482" y="497" type="line"/>
      <point x="482" y="500" type="line" smooth="yes"/>
      <point x="482" y="546"/>
      <point x="468" y="581"/>
      <point x="438" y="608" type="curve" smooth="yes"/>
      <point x="408" y="635"/>
      <point x="367" y="648"/>
      <point x="316" y="648" type="curve" smooth="yes"/>
      <point x="259" y="648"/>
      <point x="217" y="632"/>
      <point x="187" y="600" type="curve" smooth="yes"/>
      <point x="157" y="568"/>
      <point x="142" y="515"/>
      <point x="142" y="442" type="curve" smooth="yes"/>
      <point x="142" y="258" type="line" smooth="yes"/>
      <point x="142" y="126"/>
      <point x="200" y="60"/>
      <point x="317" y="60" type="curve" smooth="yes"/>
      <point x="368" y="60"/>
      <point x="409" y="74"/>
      <point x="438" y="100" type="curve" smooth="yes"/>
      <point x="467" y="126"/>
      <point x="482" y="162"/>
      <point x="482" y="208" type="curve" smooth="yes"/>
      <point x="482" y="212" type="line"/>
      <point x="555" y="212" type="line"/>
      <point x="555" y="208" type="line" smooth="yes"/>
      <point x="555" y="151"/>
      <point x="539" y="103"/>
      <point x="506" y="66" type="curve" smooth="yes"/>
      <point x="473" y="29"/>
      <point x="428" y="6"/>
      <point x="371" y="-4" type="curve"/>
      <point x="322" y="-154" type="line"/>
      <point x="249" y="-154" type="line"/>
      <point x="305" y="-8" type="line"/>
      <point x="233" y="-6"/>
      <point x="175" y="17"/>
      <point x="132" y="60" type="curve" smooth="yes"/>
      <point x="89" y="103"/>
      <point x="68" y="171"/>
      <point x="68" y="262" type="curve" smooth="yes"/>
      <point x="68" y="445" type="line" smooth="yes"/>
      <point x="68" y="539"/>
      <point x="90" y="608"/>
      <point x="135" y="651" type="curve" smooth="yes"/>
      <point x="180" y="694"/>
      <point x="240" y="716"/>
      <point x="316" y="716" type="curve" smooth="yes"/>
      <point x="364" y="716"/>
      <point x="406" y="707"/>
      <point x="443" y="689" type="curve" smooth="yes"/>
      <point x="480" y="671"/>
      <point x="507" y="646"/>
      <point x="527" y="613" type="curve" smooth="yes"/>
      <point x="547" y="580"/>
      <point x="557" y="543"/>
      <point x="557" y="500" type="curve" smooth="yes"/>
      <point x="557" y="497" type="line"/>
    </contour>
  </outline>
</glyph>
<glyph name="Otilde" format="2">
  <advance width="624"/>
  <unicode hex="00D5"/>
  <outline>
    <contour>
      <point x="134" y="57" type="curve" smooth="yes"/>
      <point x="90" y="100"/>
      <point x="68" y="168"/>
      <point x="68" y="262" type="curve" smooth="yes"/>
      <point x="68" y="445" type="line" smooth="yes"/>
      <point x="68" y="539"/>
      <point x="90" y="608"/>
      <point x="134" y="651" type="curve" smooth="yes"/>
      <point x="178" y="694"/>
      <point x="238" y="716"/>
      <point x="313" y="716" type="curve" smooth="yes"/>
      <point x="387" y="716"/>
      <point x="447" y="694"/>
      <point x="491" y="651" type="curve" smooth="yes"/>
      <point x="535" y="608"/>
      <point x="557" y="539"/>
      <point x="557" y="445" type="curve" smooth="yes"/>
      <point x="557" y="262" type="line" smooth="yes"/>
      <point x="557" y="168"/>
      <point x="534" y="100"/>
      <point x="490" y="57" type="curve" smooth="yes"/>
      <point x="446" y="14"/>
      <point x="386" y="-8"/>
      <point x="312" y="-8" type="curve" smooth="yes"/>
      <point x="237" y="-8"/>
      <point x="178" y="14"/>
    </contour>
    <contour>
      <point x="482" y="258" type="curve" smooth="yes"/>
      <point x="482" y="442" type="line" smooth="yes"/>
      <point x="482" y="579"/>
      <point x="426" y="648"/>
      <point x="313" y="648" type="curve" smooth="yes"/>
      <point x="256" y="648"/>
      <point x="214" y="632"/>
      <point x="185" y="600" type="curve" smooth="yes"/>
      <point x="156" y="568"/>
      <point x="142" y="514"/>
      <point x="142" y="442" type="curve" smooth="yes"/>
      <point x="142" y="258" type="line" smooth="yes"/>
      <point x="142" y="189"/>
      <point x="157" y="139"/>
      <point x="186" y="108" type="curve" smooth="yes"/>
      <point x="215" y="77"/>
      <point x="257" y="60"/>
      <point x="313" y="60" type="curve" smooth="yes"/>
      <point x="426" y="60"/>
      <point x="482" y="126"/>
    </contour>
    <contour>
      <point x="185" y="833" type="line"/>
      <point x="197" y="847"/>
      <point x="208" y="856"/>
      <point x="219" y="862" type="curve" smooth="yes"/>
      <point x="230" y="868"/>
      <point x="242" y="871"/>
      <point x="256" y="871" type="curve" smooth="yes"/>
      <point x="267" y="871"/>
      <point x="277" y="869"/>
      <point x="286" y="866" type="curve" smooth="yes"/>
      <point x="295" y="863"/>
      <point x="305" y="858"/>
      <point x="317" y="851" type="curve" smooth="yes"/>
      <point x="327" y="845"/>
      <point x="337" y="840"/>
      <point x="345" y="837" type="curve" smooth="yes"/>
      <point x="353" y="834"/>
      <point x="361" y="831"/>
      <point x="371" y="831" type="curve" smooth="yes"/>
      <point x="383" y="831"/>
      <point x="394" y="834"/>
      <point x="403" y="840" type="curve" smooth="yes"/>
      <point x="412" y="846"/>
      <point x="424" y="856"/>
      <point x="438" y="871" type="curve"/>
      <point x="438" y="809" type="line"/>
      <point x="416" y="784"/>
      <point x="393" y="771"/>
      <point x="368" y="771" type="curve" smooth="yes"/>
      <point x="356" y="771"/>
      <point x="346" y="773"/>
      <point x="337" y="776" type="curve" smooth="yes"/>
      <point x="328" y="779"/>
      <point x="317" y="785"/>
      <point x="304" y="793" type="curve" smooth="yes"/>
      <point x="302" y="794"/>
      <point x="298" y="797"/>
      <point x="291" y="800" type="curve" smooth="yes"/>
      <point x="284" y="803"/>
      <point x="277" y="805"/>
      <point x="271" y="807" type="curve" smooth="yes"/>
      <point x="265" y="809"/>
      <point x="259" y="810"/>
      <point x="254" y="810" type="curve" smooth="yes"/>
      <point x="241" y="810"/>
      <point x="230" y="807"/>
      <point x="220" y="801" type="curve" smooth="yes"/>
      <point x="210" y="795"/>
      <point x="199" y="785"/>
      <point x="185" y="770" type="curve"/>
    </contour>
  </outline>
</glyph>
<glyph name="germandbls" format="2">
  <advance width="517"/>
  <unicode hex="00DF"/>
  <outline>
    <contour>
      <point x="257" y="59" type="line"/>
      <point x="284" y="59" type="line" smooth="yes"/>
      <point x="315" y="59"/>
      <point x="338" y="65"/>
      <point x="352" y="76" type="curve" smooth="yes"/>
      <point x="366" y="87"/>
      <point x="376" y="103"/>
      <point x="380" y="126" type="curve" smooth="yes"/>
      <point x="384" y="149"/>
      <point x="386" y="183"/>
      <point x="386" y="230" type="curve" smooth="yes"/>
      <point x="386" y="276"/>
      <point x="384" y="310"/>
      <point x="380" y="333" type="curve" smooth="yes"/>
      <point x="376" y="356"/>
      <point x="366" y="373"/>
      <point x="351" y="385" type="curve" smooth="yes"/>
      <point x="336" y="397"/>
      <point x="311" y="402"/>
      <point x="278" y="402" type="curve" smooth="yes"/>
      <point x="256" y="402" type="line"/>
      <point x="256" y="466" type="line"/>
      <point x="284" y="466" type="line" smooth="yes"/>
      <point x="317" y="466"/>
      <point x="341" y="473"/>
      <point x="356" y="488" type="curve" smooth="yes"/>
      <point x="371" y="503"/>
      <point x="378" y="525"/>
      <point x="378" y="556" type="curve" smooth="yes"/>
      <point x="378" y="588"/>
      <point x="369" y="612"/>
      <point x="350" y="627" type="curve" smooth="yes"/>
      <point x="331" y="642"/>
      <point x="303" y="650"/>
      <point x="265" y="650" type="curve" smooth="yes"/>
      <point x="224" y="650"/>
      <point x="194" y="640"/>
      <point x="175" y="621" type="curve" smooth="yes"/>
      <point x="156" y="602"/>
      <point x="146" y="570"/>
      <point x="146" y="527" type="curve" smooth="yes"/>
      <point x="146" y="0" type="line"/>
      <point x="77" y="0" type="line"/>
      <point x="77" y="518" type="line" smooth="yes"/>
      <point x="77" y="582"/>
      <point x="92" y="631"/>
      <point x="121" y="664" type="curve" smooth="yes"/>
      <point x="150" y="697"/>
      <point x="198" y="714"/>
      <point x="264" y="714" type="curve" smooth="yes"/>
      <point x="323" y="714"/>
      <point x="369" y="700"/>
      <point x="401" y="673" type="curve" smooth="yes"/>
      <point x="433" y="646"/>
      <point x="449" y="607"/>
      <point x="449" y="557" type="curve" smooth="yes"/>
      <point x="449" y="527"/>
      <point x="443" y="502"/>
      <point x="432" y="483" type="curve" smooth="yes"/>
      <point x="421" y="464"/>
      <point x="405" y="449"/>
      <point x="382" y="437" type="curve"/>
      <point x="404" y="427"/>
      <point x="420" y="413"/>
      <point x="431" y="397" type="curve" smooth="yes"/>
      <point x="442" y="381"/>
      <point x="449" y="360"/>
      <point x="452" y="335" type="curve" smooth="yes"/>
      <point x="455" y="310"/>
      <point x="457" y="275"/>
      <point x="457" y="230" type="curve" smooth="yes"/>
      <point x="457" y="170"/>
      <point x="452" y="124"/>
      <point x="444" y="91" type="curve" smooth="yes"/>
      <point x="436" y="58"/>
      <point x="420" y="34"/>
      <point x="396" y="19" type="curve" smooth="yes"/>
      <point x="372" y="4"/>
      <point x="335" y="-4"/>
      <point x="287" y="-4" type="curve" smooth="yes"/>
      <point x="257" y="-4" type="line"/>
    </contour>
  </outline>
</glyph>
<glyph name="agrave" format="2">
  <advance width="508"/>
  <unicode hex="00E0"/>
  <outline>
    <contour>
      <point x="383" y="482" type="curve" smooth="yes"/>
      <point x="415" y="453"/>
      <point x="432" y="410"/>
      <point x="432" y="353" type="curve" smooth="yes"/>
      <point x="432" y="0" type="line"/>
      <point x="364" y="0" type="line"/>
      <point x="364" y="55" type="line"/>
      <point x="348" y="34"/>
      <point x="328" y="19"/>
      <point x="305" y="9" type="curve" smooth="yes"/>
      <point x="282" y="-1"/>
      <point x="253" y="-6"/>
      <point x="220" y="-6" type="curve" smooth="yes"/>
      <point x="165" y="-6"/>
      <point x="123" y="7"/>
      <point x="93" y="33" type="curve" smooth="yes"/>
      <point x="63" y="59"/>
      <point x="48" y="96"/>
      <point x="48" y="146" type="curve" smooth="yes"/>
      <point x="48" y="192"/>
      <point x="64" y="229"/>
      <point x="94" y="255" type="curve" smooth="yes"/>
      <point x="124" y="281"/>
      <point x="167" y="295"/>
      <point x="222" y="295" type="curve" smooth="yes"/>
      <point x="362" y="295" type="line"/>
      <point x="362" y="354" type="line" smooth="yes"/>
      <point x="362" y="392"/>
      <point x="352" y="420"/>
      <point x="332" y="439" type="curve" smooth="yes"/>
      <point x="312" y="458"/>
      <point x="283" y="468"/>
      <point x="245" y="468" type="curve" smooth="yes"/>
      <point x="210" y="468"/>
      <point x="181" y="460"/>
      <point x="161" y="444" type="curve" smooth="yes"/>
      <point x="141" y="428"/>
      <point x="131" y="406"/>
      <point x="131" y="378" type="curve" smooth="yes"/>
      <point x="131" y="375" type="line"/>
      <point x="63" y="375" type="line"/>
      <point x="63" y="380" type="line" smooth="yes"/>
      <point x="63" y="424"/>
      <point x="80" y="459"/>
      <point x="112" y="486" type="curve" smooth="yes"/>
      <point x="144" y="513"/>
      <point x="188" y="526"/>
      <point x="244" y="526" type="curve" smooth="yes"/>
      <point x="305" y="526"/>
      <point x="351" y="511"/>
    </contour>
    <contour>
      <point x="331" y="81" type="curve" smooth="yes"/>
      <point x="352" y="102"/>
      <point x="362" y="134"/>
      <point x="362" y="176" type="curve" smooth="yes"/>
      <point x="362" y="244" type="line"/>
      <point x="232" y="244" type="line" smooth="yes"/>
      <point x="156" y="244"/>
      <point x="118" y="211"/>
      <point x="118" y="147" type="curve" smooth="yes"/>
      <point x="118" y="82"/>
      <point x="155" y="50"/>
      <point x="231" y="50" type="curve" smooth="yes"/>
      <point x="277" y="50"/>
      <point x="310" y="60"/>
    </contour>
    <contour>
      <point x="123" y="714" type="line"/>
      <point x="209" y="714" type="line"/>
      <point x="310" y="586" type="line"/>
      <point x="246" y="586" type="line"/>
    </contour>
  </outline>
</glyph>
<glyph name="aring" format="2">
  <advance width="508"/>
  <unicode hex="00E5"/>
  <outline>
    <contour>
      <point x="383" y="482" type="curve" smooth="yes"/>
      <point x="415" y="453"/>
      <point x="432" y="410"/>
      <point x="432" y="353" type="curve" smooth="yes"/>
      <point x="432" y="0" type="line"/>
      <point x="364" y="0" type="line"/>
      <point x="364" y="55" type="line"/>
      <point x="348" y="34"/>
      <point x="328" y="19"/>
      <point x="305" y="9" type="curve" smooth="yes"/>
      <point x="282" y="-1"/>
      <point x="253" y="-6"/>
      <point x="220" y="-6" type="curve" smooth="yes"/>
      <point x="165" y="-6"/>
      <point x="123" y="7"/>
      <point x="93" y="33" type="curve" smooth="yes"/>
      <point x="63" y="59"/>
      <point x="48" y="96"/>
      <point x="48" y="146" type="curve" smooth="yes"/>
      <point x="48" y="192"/>
      <point x="64" y="229"/>
      <point x="94" y="255" type="curve" smooth="yes"/>
      <point x="124" y="281"/>
      <point x="167" y="295"/>
      <point x="222" y="295" type="curve" smooth="yes"/>
      <point x="362" y="295" type="line"/>
      <point x="362" y="354" type="line" smooth="yes"/>
      <point x="362" y="392"/>
      <point x="352" y="420"/>
      <point x="332" y="439" type="curve" smooth="yes"/>
      <point x="312" y="458"/>
      <point x="283" y="468"/>
      <point x="245" y="468" type="curve" smooth="yes"/>
      <point x="210" y="468"/>
      <point x="181" y="460"/>
      <point x="161" y="444" type="curve" smooth="yes"/>
      <point x="141" y="428"/>
      <point x="131" y="406"/>
      <point x="131" y="378" type="curve" smooth="yes"/>
      <point x="131" y="375" type="line"/>
      <point x="63" y="375" type="line"/>
      <point x="63" y="380" type="line" smooth="yes"/>
      <point x="63" y="424"/>
      <point x="80" y="459"/>
      <point x="112" y="486" type="curve" smooth="yes"/>
      <point x="144" y="513"/>
      <point x="188" y="526"/>
      <point x="244" y="526" type="curve" smooth="yes"/>
      <point x="305" y="526"/>
      <point x="351" y="511"/>
    </contour>
    <contour>
      <point x="331" y="81" type="curve" smooth="yes"/>
      <point x="352" y="102"/>
      <point x="362" y="134"/>
      <point x="362" y="176" type="curve" smooth="yes"/>
      <point x="362" y="244" type="line"/>
      <point x="232" y="244" type="line" smooth="yes"/>
      <point x="156" y="244"/>
      <point x="118" y="211"/>
      <point x="118" y="147" type="curve" smooth="yes"/>
      <point x="118" y="82"/>
      <point x="155" y="50"/>
      <point x="231" y="50" type="curve" smooth="yes"/>
      <point x="277" y="50"/>
      <point x="310" y="60"/>
    </contour>
    <contour>
      <point x="185" y="599" type="curve" smooth="yes"/>
      <point x="168" y="617"/>
      <point x="159" y="639"/>
      <point x="159" y="666" type="curve" smooth="yes"/>
      <point x="159" y="693"/>
      <point x="168" y="715"/>
      <point x="185" y="733" type="curve" smooth="yes"/>
      <point x="202" y="751"/>
      <point x="225" y="760"/>
      <point x="252" y="760" type="curve" smooth="yes"/>
      <point x="279" y="760"/>
      <point x="300" y="751"/>
      <point x="318" y="733" type="curve" smooth="yes"/>
      <point x="336" y="715"/>
      <point x="345" y="693"/>
      <point x="345" y="666" type="curve" smooth="yes"/>
      <point x="345" y="639"/>
      <point x="336" y="617"/>
      <point x="318" y="599" type="curve" smooth="yes"/>
      <point x="300" y="581"/>
      <point x="279" y="572"/>
      <point x="252" y="572" type="curve" smooth="yes"/>
      <point x="225" y="572"/>
      <point x="202" y="581"/>
    </contour>
    <contour>
      <point x="290" y="627" type="curve" smooth="yes"/>
      <point x="300" y="637"/>
      <point x="305" y="650"/>
      <point x="305" y="666" type="curve" smooth="yes"/>
      <point x="305" y="682"/>
      <point x="300" y="694"/>
      <point x="290" y="705" type="curve" smooth="yes"/>
      <point x="280" y="716"/>
      <point x="267" y="721"/>
      <point x="252" y="721" type="curve" smooth="yes"/>
      <point x="237" y="721"/>
      <point x="224" y="716"/>
      <point x="214" y="705" type="curve" smooth="yes"/>
      <point x="204" y="694"/>
      <point x="199" y="682"/>
      <point x="199" y="666" type="curve" smooth="yes"/>
      <point x="199" y="650"/>
      <point x="204" y="637"/>
      <point x="214" y="627" type="curve" smooth="yes"/>
      <point x="224" y="617"/>
      <point x="237" y="611"/>
      <point x="252" y="611" type="curve" smooth="yes"/>
      <point x="267" y="611"/>
      <point x="280" y="617"/>
    </contour>
  </outline>
</glyph>
<glyph name="ccedilla" format="2">
  <advance width="515"/>
  <unicode hex="00E7"/>
  <outline>
    <contour>
      <point x="387" y="348" type="line"/>
      <point x="387" y="353" type="line" smooth="yes"/>
      <point x="387" y="388"/>
      <point x="376" y="415"/>
      <point x="354" y="434" type="curve" smooth="yes"/>
      <point x="332" y="453"/>
      <point x="303" y="463"/>
      <point x="265" y="463" type="curve" smooth="yes"/>
      <point x="223" y="463"/>
      <point x="190" y="452"/>
      <point x="166" y="429" type="curve" smooth="yes"/>
      <point x="142" y="406"/>
      <point x="130" y="366"/>
      <point x="130" y="309" type="curve" smooth="yes"/>
      <point x="130" y="211" type="line" smooth="yes"/>
      <point x="130" y="154"/>
      <point x="141" y="114"/>
      <point x="165" y="91" type="curve" smooth="yes"/>
      <point x="189" y="68"/>
      <point x="222" y="56"/>
      <point x="264" y="56" type="curve" smooth="yes"/>
      <point x="302" y="56"/>
      <point x="332" y="66"/>
      <point x="354" y="85" type="curve" smooth="yes"/>
      <point x="376" y="104"/>
      <point x="387" y="131"/>
      <point x="387" y="166" type="curve" smooth="yes"/>
      <point x="387" y="171" type="line"/>
      <point x="455" y="171" type="line"/>
      <point x="455" y="167" type="line" smooth="yes"/>
      <point x="455" y="123"/>
      <point x="443" y="87"/>
      <point x="418" y="57" type="curve" smooth="yes"/>
      <point x="393" y="27"/>
      <point x="359" y="8"/>
      <point x="316" y="-1" type="curve"/>
      <point x="266" y="-154" type="line"/>
      <point x="194" y="-154" type="line"/>
      <point x="251" y="-6" type="line"/>
      <point x="192" y="-4"/>
      <point x="146" y="14"/>
      <point x="112" y="48" type="curve" smooth="yes"/>
      <point x="78" y="82"/>
      <point x="60" y="135"/>
      <point x="60" y="207" type="curve" smooth="yes"/>
      <point x="60" y="313" type="line" smooth="yes"/>
      <point x="60" y="387"/>
      <point x="78" y="441"/>
      <point x="115" y="475" type="curve" smooth="yes"/>
      <point x="152" y="509"/>
      <point x="201" y="526"/>
      <point x="262" y="526" type="curve" smooth="yes"/>
      <point x="321" y="526"/>
      <point x="369" y="510"/>
      <point x="403" y="479" type="curve" smooth="yes"/>
      <point x="437" y="448"/>
      <point x="455" y="406"/>
      <point x="455" y="353" type="curve" smooth="yes"/>
      <point x="455" y="348" type="line"/>
    </contour>
  </outline>
</glyph>
<glyph name="igrave" format="2">
  <advance width="239"/>
  <unicode hex="00EC"/>
  <outline>
    <contour>
      <point x="85" y="519" type="line"/>
      <point x="155" y="519" type="line"/>
      <point x="155" y="0" type="line"/>
      <point x="85" y="0" type="line"/>
    </contour>
    <contour>
      <point x="-40" y="714" type="line"/>
      <point x="46" y="714" type="line"/>
      <point x="147" y="586" type="line"/>
      <point x="83" y="586" type="line"/>
    </contour>
  </outline>
</glyph>
<glyph name="iacute" format="2">
  <advance width="239"/>
  <unicode hex="00ED"/>
  <outline>
    <contour>
      <point x="85" y="519" type="line"/>
      <point x="155" y="519" type="line"/>
      <point x="155" y="0" type="line"/>
      <point x="85" y="0" type="line"/>
    </contour>
    <contour>
      <point x="176" y="714" type="line"/>
      <point x="262" y="714" type="line"/>
      <point x="139" y="586" type="line"/>
      <point x="75" y="586" type="line"/>
    </contour>
  </outline>
</glyph>
<glyph name="icircumflex" format="2">
  <advance width="239"/>
  <unicode hex="00EE"/>
  <outline>
    <contour>
      <point x="85" y="519" type="line"/>
      <point x="155" y="519" type="line"/>
      <point x="155" y="0" type="line"/>
      <point x="85" y="0" type="line"/>
    </contour>
    <contour>
      <point x="91" y="723" type="line"/>
      <point x="147" y="723" type="line"/>
      <point x="257" y="575" type="line"/>
      <point x="194" y="575" type="line"/>
      <point x="120" y="673" type="line"/>
      <point x="45" y="575" type="line"/>
      <point x="-18" y="575" type="line"/>
    </contour>
  </outline>
</glyph>
<glyph name="idieresis" format="2">
  <advance width="239"/>
  <unicode hex="00EF"/>
  <outline>
    <contour>
      <point x="85" y="519" type="line"/>
      <point x="155" y="519" type="line"/>
      <point x="155" y="0" type="line"/>
      <point x="85" y="0" type="line"/>
    </contour>
    <contour>
      <point x="-7" y="680" type="line"/>
      <point x="71" y="680" type="line"/>
      <point x="71" y="592" type="line"/>
      <point x="-7" y="592" type="line"/>
    </contour>
    <contour>
      <point x="168" y="680" type="line"/>
      <point x="246" y="680" type="line"/>
      <point x="246" y="592" type="line"/>
      <point x="168" y="592" type="line"/>
    </contour>
  </outline>
</glyph>
<glyph name="eth" format="2">
  <advance width="507"/>
  <unicode hex="00F0"/>
  <outline>
    <contour>
      <point x="428" y="394" type="curve" smooth="yes"/>
      <point x="441" y="356"/>
      <point x="447" y="315"/>
      <point x="447" y="273" type="curve" smooth="yes"/>
      <point x="447" y="217" type="line" smooth="yes"/>
      <point x="447" y="142"/>
      <point x="431" y="86"/>
      <point x="397" y="48" type="curve" smooth="yes"/>
      <point x="363" y="10"/>
      <point x="315" y="-9"/>
      <point x="253" y="-9" type="curve" smooth="yes"/>
      <point x="192" y="-9"/>
      <point x="144" y="9"/>
      <point x="111" y="47" type="curve" smooth="yes"/>
      <point x="78" y="85"/>
      <point x="60" y="140"/>
      <point x="60" y="212" type="curve" smooth="yes"/>
      <point x="60" y="268" type="line" smooth="yes"/>
      <point x="60" y="338"/>
      <point x="76" y="391"/>
      <point x="107" y="429" type="curve" smooth="yes"/>
      <point x="138" y="467"/>
      <point x="182" y="485"/>
      <point x="237" y="485" type="curve" smooth="yes"/>
      <point x="265" y="485"/>
      <point x="288" y="481"/>
      <point x="308" y="471" type="curve"/>
      <point x="239" y="566" type="line"/>
      <point x="134" y="535" type="line"/>
      <point x="119" y="590" type="line"/>
      <point x="203" y="615" type="line"/>
      <point x="137" y="707" type="line"/>
      <point x="221" y="707" type="line"/>
      <point x="272" y="637" type="line"/>
      <point x="374" y="668" type="line"/>
      <point x="389" y="612" type="line"/>
      <point x="308" y="588" type="line"/>
      <point x="366" y="508" type="line" smooth="yes"/>
      <point x="394" y="470"/>
      <point x="415" y="432"/>
    </contour>
    <contour>
      <point x="377" y="268" type="line" smooth="yes"/>
      <point x="377" y="370"/>
      <point x="336" y="421"/>
      <point x="255" y="421" type="curve" smooth="yes"/>
      <point x="172" y="421"/>
      <point x="130" y="370"/>
      <point x="130" y="270" type="curve" smooth="yes"/>
      <point x="130" y="212" type="line" smooth="yes"/>
      <point x="130" y="109"/>
      <point x="172" y="57"/>
      <point x="255" y="57" type="curve" smooth="yes"/>
      <point x="336" y="57"/>
      <point x="377" y="109"/>
      <point x="377" y="211" type="curve" smooth="yes"/>
    </contour>
  </outline>
</glyph>
<glyph name="otilde" format="2">
  <advance width="517"/>
  <unicode hex="00F5"/>
  <outline>
    <contour>
      <point x="115" y="45" type="curve" smooth="yes"/>
      <point x="79" y="79"/>
      <point x="60" y="133"/>
      <point x="60" y="207" type="curve" smooth="yes"/>
      <point x="60" y="313" type="line" smooth="yes"/>
      <point x="60" y="387"/>
      <point x="79" y="441"/>
      <point x="115" y="475" type="curve" smooth="yes"/>
      <point x="151" y="509"/>
      <point x="199" y="526"/>
      <point x="260" y="526" type="curve" smooth="yes"/>
      <point x="319" y="526"/>
      <point x="367" y="509"/>
      <point x="403" y="475" type="curve" smooth="yes"/>
      <point x="439" y="441"/>
      <point x="457" y="387"/>
      <point x="457" y="313" type="curve" smooth="yes"/>
      <point x="457" y="207" type="line" smooth="yes"/>
      <point x="457" y="133"/>
      <point x="439" y="79"/>
      <point x="403" y="45" type="curve" smooth="yes"/>
      <point x="367" y="11"/>
      <point x="319" y="-6"/>
      <point x="260" y="-6" type="curve" smooth="yes"/>
      <point x="199" y="-6"/>
      <point x="151" y="11"/>
    </contour>
    <contour>
      <point x="353" y="91" type="curve" smooth="yes"/>
      <point x="376" y="114"/>
      <point x="387" y="154"/>
      <point x="387" y="211" type="curve" smooth="yes"/>
      <point x="387" y="309" type="line" smooth="yes"/>
      <point x="387" y="366"/>
      <point x="376" y="406"/>
      <point x="353" y="429" type="curve" smooth="yes"/>
      <point x="330" y="452"/>
      <point x="299" y="463"/>
      <point x="260" y="463" type="curve" smooth="yes"/>
      <point x="220" y="463"/>
      <point x="188" y="452"/>
      <point x="165" y="429" type="curve" smooth="yes"/>
      <point x="142" y="406"/>
      <point x="130" y="366"/>
      <point x="130" y="309" type="curve" smooth="yes"/>
      <point x="130" y="211" type="line" smooth="yes"/>
      <point x="130" y="154"/>
      <point x="142" y="114"/>
      <point x="165" y="91" type="curve" smooth="yes"/>
      <point x="188" y="68"/>
      <point x="220" y="56"/>
      <point x="260" y="56" type="curve" smooth="yes"/>
      <point x="299" y="56"/>
      <point x="330" y="68"/>
    </contour>
    <contour>
      <point x="131" y="645" type="line"/>
      <point x="143" y="659"/>
      <point x="154" y="669"/>
      <point x="165" y="675" type="curve" smooth="yes"/>
      <point x="176" y="681"/>
      <point x="188" y="684"/>
      <point x="202" y="684" type="curve" smooth="yes"/>
      <point x="213" y="684"/>
      <point x="222" y="682"/>
      <point x="231" y="679" type="curve" smooth="yes"/>
      <point x="240" y="676"/>
      <point x="251" y="671"/>
      <point x="263" y="664" type="curve" smooth="yes"/>
      <point x="273" y="658"/>
      <point x="282" y="652"/>
      <point x="290" y="649" type="curve" smooth="yes"/>
      <point x="298" y="646"/>
      <point x="306" y="644"/>
      <point x="316" y="644" type="curve" smooth="yes"/>
      <point x="328" y="644"/>
      <point x="340" y="647"/>
      <point x="349" y="653" type="curve" smooth="yes"/>
      <point x="358" y="659"/>
      <point x="370" y="669"/>
      <point x="384" y="684" type="curve"/>
      <point x="384" y="622" type="line"/>
      <point x="362" y="597"/>
      <point x="338" y="584"/>
      <point x="313" y="584" type="curve" smooth="yes"/>
      <point x="301" y="584"/>
      <point x="292" y="586"/>
      <point x="283" y="589" type="curve" smooth="yes"/>
      <point x="274" y="592"/>
      <point x="263" y="597"/>
      <point x="250" y="605" type="curve" smooth="yes"/>
      <point x="248" y="606"/>
      <point x="244" y="609"/>
      <point x="237" y="612" type="curve" smooth="yes"/>
      <point x="230" y="615"/>
      <point x="223" y="618"/>
      <point x="217" y="620" type="curve" smooth="yes"/>
      <point x="211" y="622"/>
      <point x="205" y="623"/>
      <point x="200" y="623" type="curve" smooth="yes"/>
      <point x="187" y="623"/>
      <point x="176" y="620"/>
      <point x="166" y="614" type="curve" smooth="yes"/>
      <point x="156" y="608"/>
      <point x="145" y="598"/>
      <point x="131" y="583" type="curve"/>
    </contour>
  </outline>
</glyph>
<glyph name="oslash" format="2">
  <advance width="517"/>
  <unicode hex="00F8"/>
  <outline>
    <contour>
      <point x="410" y="468" type="line"/>
      <point x="441" y="433"/>
      <point x="457" y="381"/>
      <point x="457" y="313" type="curve" smooth="yes"/>
      <point x="457" y="207" type="line" smooth="yes"/>
      <point x="457" y="133"/>
      <point x="439" y="79"/>
      <point x="403" y="45" type="curve" smooth="yes"/>
      <point x="367" y="11"/>
      <point x="319" y="-6"/>
      <point x="260" y="-6" type="curve" smooth="yes"/>
      <point x="212" y="-6"/>
      <point x="171" y="5"/>
      <point x="139" y="25" type="curve"/>
      <point x="105" y="-31" type="line"/>
      <point x="60" y="-31" type="line"/>
      <point x="110" y="50" type="line"/>
      <point x="77" y="86"/>
      <point x="60" y="139"/>
      <point x="60" y="207" type="curve" smooth="yes"/>
      <point x="60" y="313" type="line" smooth="yes"/>
      <point x="60" y="387"/>
      <point x="79" y="441"/>
      <point x="115" y="475" type="curve" smooth="yes"/>
      <point x="151" y="509"/>
      <point x="199" y="526"/>
      <point x="260" y="526" type="curve" smooth="yes"/>
      <point x="308" y="526"/>
      <point x="348" y="516"/>
      <point x="380" y="494" type="curve"/>
      <point x="412" y="546" type="line"/>
      <point x="457" y="546" type="line"/>
    </contour>
    <contour>
      <point x="148" y="114" type="curve"/>
      <point x="345" y="436" type="line"/>
      <point x="325" y="454"/>
      <point x="296" y="463"/>
      <point x="260" y="463" type="curve" smooth="yes"/>
      <point x="220" y="463"/>
      <point x="188" y="452"/>
      <point x="165" y="429" type="curve" smooth="yes"/>
      <point x="142" y="406"/>
      <point x="130" y="366"/>
      <point x="130" y="309" type="curve" smooth="yes"/>
      <point x="130" y="211" type="line" smooth="yes"/>
      <point x="130" y="172"/>
      <point x="136" y="140"/>
    </contour>
    <contour>
      <point x="370" y="403" type="curve"/>
      <point x="174" y="82" type="line"/>
      <point x="194" y="65"/>
      <point x="222" y="56"/>
      <point x="260" y="56" type="curve" smooth="yes"/>
      <point x="299" y="56"/>
      <point x="330" y="68"/>
      <point x="353" y="91" type="curve" smooth="yes"/>
      <point x="376" y="114"/>
      <point x="387" y="154"/>
      <point x="387" y="211" type="curve" smooth="yes"/>
      <point x="387" y="309" type="line" smooth="yes"/>
      <point x="387" y="347"/>
      <point x="382" y="378"/>
    </contour>
  </outline>
</glyph>
<glyph name="oe" format="2">
  <advance width="841"/>
  <unicode hex="0153"/>
  <outline>
    <contour>
      <point x="457" y="246" type="line"/>
      <point x="457" y="215" type="line" smooth="yes"/>
      <point x="457" y="156"/>
      <point x="469" y="116"/>
      <point x="493" y="92" type="curve" smooth="yes"/>
      <point x="517" y="68"/>
      <point x="550" y="56"/>
      <point x="592" y="56" type="curve" smooth="yes"/>
      <point x="629" y="56"/>
      <point x="657" y="65"/>
      <point x="678" y="83" type="curve" smooth="yes"/>
      <point x="699" y="101"/>
      <point x="710" y="126"/>
      <point x="710" y="157" type="curve" smooth="yes"/>
      <point x="710" y="160" type="line"/>
      <point x="777" y="160" type="line"/>
      <point x="777" y="155" type="line" smooth="yes"/>
      <point x="777" y="107"/>
      <point x="761" y="67"/>
      <point x="727" y="38" type="curve" smooth="yes"/>
      <point x="693" y="9"/>
      <point x="646" y="-6"/>
      <point x="587" y="-6" type="curve" smooth="yes"/>
      <point x="512" y="-6"/>
      <point x="457" y="20"/>
      <point x="423" y="71" type="curve"/>
      <point x="391" y="20"/>
      <point x="336" y="-6"/>
      <point x="260" y="-6" type="curve" smooth="yes"/>
      <point x="199" y="-6"/>
      <point x="151" y="11"/>
      <point x="115" y="45" type="curve" smooth="yes"/>
      <point x="79" y="79"/>
      <point x="60" y="133"/>
      <point x="60" y="207" type="curve" smooth="yes"/>
      <point x="60" y="313" type="line" smooth="yes"/>
      <point x="60" y="387"/>
      <point x="79" y="441"/>
      <point x="115" y="475" type="curve" smooth="yes"/>
      <point x="151" y="509"/>
      <point x="199" y="526"/>
      <point x="260" y="526" type="curve" smooth="yes"/>
      <point x="336" y="526"/>
      <point x="390" y="501"/>
      <point x="423" y="450" type="curve"/>
      <point x="440" y="476"/>
      <point x="462" y="494"/>
      <point x="490" y="507" type="curve" smooth="yes"/>
      <point x="518" y="520"/>
      <point x="549" y="526"/>
      <point x="584" y="526" type="curve" smooth="yes"/>
      <point x="644" y="526"/>
      <point x="692" y="509"/>
      <point x="728" y="473" type="curve" smooth="yes"/>
      <point x="764" y="437"/>
      <point x="781" y="381"/>
      <point x="781" y="307" type="curve" smooth="yes"/>
      <point x="781" y="246" type="line"/>
    </contour>
    <contour>
      <point x="387" y="309" type="line" smooth="yes"/>
      <point x="387" y="366"/>
      <point x="376" y="406"/>
      <point x="353" y="429" type="curve" smooth="yes"/>
      <point x="330" y="452"/>
      <point x="299" y="463"/>
      <point x="260" y="463" type="curve" smooth="yes"/>
      <point x="220" y="463"/>
      <point x="188" y="452"/>
      <point x="165" y="429" type="curve" smooth="yes"/>
      <point x="142" y="406"/>
      <point x="130" y="366"/>
      <point x="130" y="309" type="curve" smooth="yes"/>
      <point x="130" y="211" type="line" smooth="yes"/>
      <point x="130" y="154"/>
      <point x="142" y="114"/>
      <point x="165" y="91" type="curve" smooth="yes"/>
      <point x="188" y="68"/>
      <point x="220" y="56"/>
      <point x="260" y="56" type="curve" smooth="yes"/>
      <point x="299" y="56"/>
      <point x="330" y="68"/>
      <point x="353" y="91" type="curve" smooth="yes"/>
      <point x="376" y="114"/>
      <point x="387" y="154"/>
      <point x="387" y="211" type="curve" smooth="yes"/>
    </contour>
    <contour>
      <point x="491" y="429" type="curve" smooth="yes"/>
      <point x="468" y="406"/>
      <point x="457" y="366"/>
      <point x="457" y="309" type="curve" smooth="yes"/>
      <point x="457" y="298" type="line"/>
      <point x="711" y="298" type="line"/>
      <point x="711" y="316" type="line" smooth="yes"/>
      <point x="711" y="369"/>
      <point x="700" y="408"/>
      <point x="677" y="430" type="curve" smooth="yes"/>
      <point x="654" y="452"/>
      <point x="624" y="463"/>
      <point x="585" y="463" type="curve" smooth="yes"/>
      <point x="545" y="463"/>
      <point x="514" y="452"/>
    </contour>
  </outline>
</glyph>
<glyph name="Zcaron" format="2">
  <advance width="528"/>
  <unicode hex="017D"/>
  <outline>
    <contour>
      <point x="492" y="68" type="line"/>
      <point x="492" y="0" type="line"/>
      <point x="41" y="0" type="line"/>
      <point x="41" y="68" type="line"/>
      <point x="403" y="639" type="line"/>
      <point x="54" y="639" type="line"/>
      <point x="54" y="707" type="line"/>
      <point x="488" y="707" type="line"/>
      <point x="488" y="639" type="line"/>
      <point x="126" y="68" type="line"/>
    </contour>
    <contour>
      <point x="126" y="911" type="line"/>
      <point x="189" y="911" type="line"/>
      <point x="264" y="814" type="line"/>
      <point x="338" y="911" type="line"/>
      <point x="401" y="911" type="line"/>
      <point x="292" y="764" type="line"/>
      <point x="236" y="764" type="line"/>
    </contour>
  </outline>
</glyph>
<glyph name="ring" format="2">
  <advance width="512"/>
  <unicode hex="02DA"/>
  <outline>
    <contour>
      <point x="189" y="599" type="curve" smooth="yes"/>
      <point x="172" y="617"/>
      <point x="163" y="639"/>
      <point x="163" y="666" type="curve" smooth="yes"/>
      <point x="163" y="693"/>
      <point x="172" y="715"/>
      <point x="189" y="733" type="curve" smooth="yes"/>
      <point x="206" y="751"/>
      <point x="229" y="760"/>
      <point x="256" y="760" type="curve" smooth="yes"/>
      <point x="283" y="760"/>
      <point x="305" y="751"/>
      <point x="323" y="733" type="curve" smooth="yes"/>
      <point x="341" y="715"/>
      <point x="349" y="693"/>
      <point x="349" y="666" type="curve" smooth="yes"/>
      <point x="349" y="639"/>
      <point x="341" y="617"/>
      <point x="323" y="599" type="curve" smooth="yes"/>
      <point x="305" y="581"/>
      <point x="283" y="572"/>
      <point x="256" y="572" type="curve" smooth="yes"/>
      <point x="229" y="572"/>
      <point x="206" y="581"/>
    </contour>
    <contour>
      <point x="294" y="627" type="curve" smooth="yes"/>
      <point x="304" y="637"/>
      <point x="309" y="650"/>
      <point x="309" y="666" type="curve" smooth="yes"/>
      <point x="309" y="682"/>
      <point x="304" y="694"/>
      <point x="294" y="705" type="curve" smooth="yes"/>
      <point x="284" y="716"/>
      <point x="271" y="721"/>
      <point x="256" y="721" type="curve" smooth="yes"/>
      <point x="241" y="721"/>
      <point x="228" y="716"/>
      <point x="218" y="705" type="curve" smooth="yes"/>
      <point x="208" y="694"/>
      <point x="203" y="682"/>
      <point x="203" y="666" type="curve" smooth="yes"/>
      <point x="203" y="650"/>
      <point x="208" y="637"/>
      <point x="218" y="627" type="curve" smooth="yes"/>
      <point x="228" y="617"/>
      <point x="241" y="611"/>
      <point x="256" y="611" type="curve" smooth="yes"/>
      <point x="271" y="611"/>
      <point x="284" y="617"/>
    </contour>
  </outline>
</glyph>
<glyph name="guilsinglright" format="2">
  <advance width="315"/>
  <unicode hex="203A"/>
  <outline>
    <contour>
      <point x="77" y="153" type="line"/>
      <point x="193" y="270" type="line"/>
      <point x="77" y="388" type="line"/>
      <point x="77" y="473" type="line"/>
      <point x="276" y="270" type="line"/>
      <point x="77" y="68" type="line"/>
    </contour>
  </outline>
</glyph>
<glyph name="one.dnom" format="2">
  <advance width="227"/>
  <outline>
    <contour>
      <point x="101" y="352" type="line"/>
      <point x="27" y="296" type="line"/>
      <point x="27" y="372" type="line"/>
      <point x="101" y="427" type="line"/>
      <point x="172" y="427" type="line"/>
      <point x="172" y="0" type="line"/>
      <point x="101" y="0" type="line"/>
    </contour>
  </outline>
</glyph>
<glyph name="three.dnom" format="2">
  <advance width="326"/>
  <outline>
    <contour>
      <point x="72" y="23" type="curve" smooth="yes"/>
      <point x="51" y="42"/>
      <point x="40" y="69"/>
      <point x="40" y="103" type="curve" smooth="yes"/>
      <point x="40" y="115" type="line"/>
      <point x="101" y="115" type="line"/>
      <point x="101" y="104" type="line" smooth="yes"/>
      <point x="101" y="88"/>
      <point x="107" y="75"/>
      <point x="117" y="65" type="curve" smooth="yes"/>
      <point x="127" y="55"/>
      <point x="141" y="50"/>
      <point x="159" y="50" type="curve" smooth="yes"/>
      <point x="177" y="50"/>
      <point x="192" y="56"/>
      <point x="202" y="67" type="curve" smooth="yes"/>
      <point x="212" y="78"/>
      <point x="217" y="94"/>
      <point x="217" y="114" type="curve" smooth="yes"/>
      <point x="217" y="127" type="line" smooth="yes"/>
      <point x="217" y="147"/>
      <point x="211" y="163"/>
      <point x="200" y="175" type="curve" smooth="yes"/>
      <point x="189" y="187"/>
      <point x="174" y="193"/>
      <point x="155" y="193" type="curve" smooth="yes"/>
      <point x="133" y="193" type="line"/>
      <point x="133" y="250" type="line"/>
      <point x="155" y="250" type="line" smooth="yes"/>
      <point x="172" y="250"/>
      <point x="185" y="255"/>
      <point x="195" y="266" type="curve" smooth="yes"/>
      <point x="205" y="277"/>
      <point x="210" y="290"/>
      <point x="210" y="308" type="curve" smooth="yes"/>
      <point x="210" y="318" type="line" smooth="yes"/>
      <point x="210" y="336"/>
      <point x="205" y="351"/>
      <point x="196" y="361" type="curve" smooth="yes"/>
      <point x="187" y="371"/>
      <point x="174" y="377"/>
      <point x="158" y="377" type="curve" smooth="yes"/>
      <point x="141" y="377"/>
      <point x="127" y="372"/>
      <point x="118" y="362" type="curve" smooth="yes"/>
      <point x="109" y="352"/>
      <point x="104" y="340"/>
      <point x="104" y="324" type="curve" smooth="yes"/>
      <point x="104" y="313" type="line"/>
      <point x="42" y="313" type="line"/>
      <point x="42" y="325" type="line" smooth="yes"/>
      <point x="42" y="358"/>
      <point x="53" y="384"/>
      <point x="74" y="404" type="curve" smooth="yes"/>
      <point x="95" y="424"/>
      <point x="124" y="434"/>
      <point x="160" y="434" type="curve" smooth="yes"/>
      <point x="196" y="434"/>
      <point x="225" y="424"/>
      <point x="246" y="404" type="curve" smooth="yes"/>
      <point x="267" y="384"/>
      <point x="278" y="358"/>
      <point x="278" y="325" type="curve" smooth="yes"/>
      <point x="278" y="314" type="line" smooth="yes"/>
      <point x="278" y="294"/>
      <point x="273" y="276"/>
      <point x="263" y="261" type="curve" smooth="yes"/>
      <point x="253" y="246"/>
      <point x="241" y="234"/>
      <point x="225" y="226" type="curve"/>
      <point x="243" y="218"/>
      <point x="258" y="206"/>
      <point x="268" y="188" type="curve" smooth="yes"/>
      <point x="278" y="170"/>
      <point x="284" y="150"/>
      <point x="284" y="126" type="curve" smooth="yes"/>
      <point x="284" y="114" type="line" smooth="yes"/>
      <point x="284" y="79"/>
      <point x="272" y="49"/>
      <point x="249" y="27" type="curve" smooth="yes"/>
      <point x="226" y="5"/>
      <point x="197" y="-6"/>
      <point x="160" y="-6" type="curve" smooth="yes"/>
      <point x="122" y="-6"/>
      <point x="93" y="4"/>
    </contour>
  </outline>
</glyph>
<glyph name="two.dnom" format="2">
  <advance width="328"/>
  <outline>
    <contour>
      <point x="46" y="53" type="line"/>
      <point x="188" y="246" type="line" smooth="yes"/>
      <point x="197" y="258"/>
      <point x="204" y="270"/>
      <point x="208" y="280" type="curve" smooth="yes"/>
      <point x="212" y="290"/>
      <point x="214" y="300"/>
      <point x="214" y="312" type="curve" smooth="yes"/>
      <point x="214" y="321" type="line" smooth="yes"/>
      <point x="214" y="339"/>
      <point x="209" y="352"/>
      <point x="200" y="362" type="curve" smooth="yes"/>
      <point x="191" y="372"/>
      <point x="179" y="377"/>
      <point x="163" y="377" type="curve" smooth="yes"/>
      <point x="147" y="377"/>
      <point x="133" y="371"/>
      <point x="124" y="361" type="curve" smooth="yes"/>
      <point x="115" y="351"/>
      <point x="111" y="335"/>
      <point x="111" y="315" type="curve" smooth="yes"/>
      <point x="111" y="304" type="line"/>
      <point x="43" y="304" type="line"/>
      <point x="43" y="319" type="line" smooth="yes"/>
      <point x="43" y="354"/>
      <point x="54" y="382"/>
      <point x="76" y="403" type="curve" smooth="yes"/>
      <point x="98" y="424"/>
      <point x="128" y="434"/>
      <point x="165" y="434" type="curve" smooth="yes"/>
      <point x="201" y="434"/>
      <point x="230" y="423"/>
      <point x="252" y="403" type="curve" smooth="yes"/>
      <point x="274" y="383"/>
      <point x="285" y="357"/>
      <point x="285" y="324" type="curve" smooth="yes"/>
      <point x="285" y="312" type="line" smooth="yes"/>
      <point x="285" y="294"/>
      <point x="281" y="277"/>
      <point x="275" y="261" type="curve" smooth="yes"/>
      <point x="269" y="245"/>
      <point x="259" y="229"/>
      <point x="245" y="211" type="curve" smooth="yes"/>
      <point x="135" y="60" type="line"/>
      <point x="286" y="60" type="line"/>
      <point x="286" y="0" type="line"/>
      <point x="46" y="0" type="line"/>
    </contour>
  </outline>
</glyph>
<glyph name="two.numr" format="2">
  <advance width="328"/>
  <outline>
    <contour>
      <point x="46" y="333" type="line"/>
      <point x="188" y="525" type="line" smooth="yes"/>
      <point x="197" y="537"/>
      <point x="204" y="549"/>
      <point x="208" y="559" type="curve" smooth="yes"/>
      <point x="212" y="569"/>
      <point x="214" y="580"/>
      <point x="214" y="592" type="curve" smooth="yes"/>
      <point x="214" y="600" type="line" smooth="yes"/>
      <point x="214" y="618"/>
      <point x="209" y="632"/>
      <point x="200" y="642" type="curve" smooth="yes"/>
      <point x="191" y="652"/>
      <point x="179" y="656"/>
      <point x="163" y="656" type="curve" smooth="yes"/>
      <point x="147" y="656"/>
      <point x="133" y="651"/>
      <point x="124" y="641" type="curve" smooth="yes"/>
      <point x="115" y="631"/>
      <point x="111" y="615"/>
      <point x="111" y="595" type="curve" smooth="yes"/>
      <point x="111" y="584" type="line"/>
      <point x="43" y="584" type="line"/>
      <point x="43" y="599" type="line" smooth="yes"/>
      <point x="43" y="634"/>
      <point x="54" y="661"/>
      <point x="76" y="682" type="curve" smooth="yes"/>
      <point x="98" y="703"/>
      <point x="128" y="714"/>
      <point x="165" y="714" type="curve" smooth="yes"/>
      <point x="201" y="714"/>
      <point x="230" y="703"/>
      <point x="252" y="683" type="curve" smooth="yes"/>
      <point x="274" y="663"/>
      <point x="285" y="636"/>
      <point x="285" y="603" type="curve" smooth="yes"/>
      <point x="285" y="592" type="line" smooth="yes"/>
      <point x="285" y="574"/>
      <point x="281" y="557"/>
      <point x="275" y="541" type="curve" smooth="yes"/>
      <point x="269" y="525"/>
      <point x="259" y="508"/>
      <point x="245" y="490" type="curve" smooth="yes"/>
      <point x="135" y="340" type="line"/>
      <point x="286" y="340" type="line"/>
      <point x="286" y="280" type="line"/>
      <point x="46" y="280" type="line"/>
    </contour>
  </outline>
</glyph>
<glyph name="two.sups" format="2">
  <advance width="328"/>
  <outline>
    <contour>
      <point x="46" y="494" type="line"/>
      <point x="188" y="686" type="line" smooth="yes"/>
      <point x="197" y="698"/>
      <point x="204" y="710"/>
      <point x="208" y="720" type="curve" smooth="yes"/>
      <point x="212" y="730"/>
      <point x="214" y="741"/>
      <point x="214" y="753" type="curve" smooth="yes"/>
      <point x="214" y="761" type="line" smooth="yes"/>
      <point x="214" y="779"/>
      <point x="209" y="792"/>
      <point x="200" y="802" type="curve" smooth="yes"/>
      <point x="191" y="812"/>
      <point x="179" y="817"/>
      <point x="163" y="817" type="curve" smooth="yes"/>
      <point x="147" y="817"/>
      <point x="133" y="812"/>
      <point x="124" y="802" type="curve" smooth="yes"/>
      <point x="115" y="792"/>
      <point x="111" y="776"/>
      <point x="111" y="756" type="curve" smooth="yes"/>
      <point x="111" y="744" type="line"/>
      <point x="43" y="744" type="line"/>
      <point x="43" y="760" type="line" smooth="yes"/>
      <point x="43" y="795"/>
      <point x="54" y="822"/>
      <point x="76" y="843" type="curve" smooth="yes"/>
      <point x="98" y="864"/>
      <point x="128" y="874"/>
      <point x="165" y="874" type="curve" smooth="yes"/>
      <point x="201" y="874"/>
      <point x="230" y="864"/>
      <point x="252" y="844" type="curve" smooth="yes"/>
      <point x="274" y="824"/>
      <point x="285" y="797"/>
      <point x="285" y="764" type="curve" smooth="yes"/>
      <point x="285" y="753" type="line" smooth="yes"/>
      <point x="285" y="735"/>
      <point x="281" y="717"/>
      <point x="275" y="701" type="curve" smooth="yes"/>
      <point x="269" y="685"/>
      <point x="259" y="669"/>
      <point x="245" y="651" type="curve" smooth="yes"/>
      <point x="135" y="501" type="line"/>
      <point x="286" y="501" type="line"/>
      <point x="286" y="440" type="line"/>
      <point x="46" y="440" type="line"/>
    </contour>
  </outline>
</glyph>
<glyph name="zero.dnom" format="2">
  <advance width="334"/>
  <outline>
    <contour>
      <point x="73" y="32" type="curve" smooth="yes"/>
      <point x="53" y="57"/>
      <point x="43" y="94"/>
      <point x="43" y="145" type="curve" smooth="yes"/>
      <point x="43" y="288" type="line" smooth="yes"/>
      <point x="43" y="336"/>
      <point x="53" y="372"/>
      <point x="74" y="397" type="curve" smooth="yes"/>
      <point x="95" y="422"/>
      <point x="126" y="434"/>
      <point x="167" y="434" type="curve" smooth="yes"/>
      <point x="210" y="434"/>
      <point x="242" y="422"/>
      <point x="262" y="398" type="curve" smooth="yes"/>
      <point x="282" y="374"/>
      <point x="292" y="337"/>
      <point x="292" y="288" type="curve" smooth="yes"/>
      <point x="292" y="145" type="line" smooth="yes"/>
      <point x="292" y="94"/>
      <point x="282" y="57"/>
      <point x="262" y="32" type="curve" smooth="yes"/>
      <point x="242" y="7"/>
      <point x="210" y="-6"/>
      <point x="167" y="-6" type="curve" smooth="yes"/>
      <point x="124" y="-6"/>
      <point x="93" y="7"/>
    </contour>
    <contour>
      <point x="210" y="75" type="curve" smooth="yes"/>
      <point x="218" y="90"/>
      <point x="221" y="114"/>
      <point x="221" y="148" type="curve" smooth="yes"/>
      <point x="221" y="282" type="line" smooth="yes"/>
      <point x="221" y="315"/>
      <point x="217" y="338"/>
      <point x="209" y="352" type="curve" smooth="yes"/>
      <point x="201" y="366"/>
      <point x="187" y="374"/>
      <point x="167" y="374" type="curve" smooth="yes"/>
      <point x="147" y="374"/>
      <point x="132" y="366"/>
      <point x="124" y="352" type="curve" smooth="yes"/>
      <point x="116" y="338"/>
      <point x="113" y="315"/>
      <point x="113" y="282" type="curve" smooth="yes"/>
      <point x="113" y="148" type="line" smooth="yes"/>
      <point x="113" y="114"/>
      <point x="116" y="90"/>
      <point x="124" y="75" type="curve" smooth="yes"/>
      <point x="132" y="60"/>
      <point x="147" y="53"/>
      <point x="167" y="53" type="curve" smooth="yes"/>
      <point x="188" y="53"/>
      <point x="202" y="60"/>
    </contour>
  </outline>
</glyph>
